STARTFONT 2.1
COMMENT the Lisp Machine name for this font was "s25ipa.ast"
FONT ipa-s25.bdf
SIZE 24 75 75
FONTBOUNDINGBOX 16 20 0 0
STARTPROPERTIES 3
FONT_DESCENT 5
FONT_ASCENT 20
COPYRIGHT "Public domain font.  Share and enjoy."
ENDPROPERTIES
CHARS 122
STARTCHAR C001
ENCODING 1
SWIDTH 666 0
DWIDTH 16 0
BBX 16 25 0 -5
BITMAP
0300
0300
0300
0300
0300
0300
0300
0300
0300
0300
4308
6318
7338
3330
3b70
1b60
0fc0
0fc0
0780
0300
0000
0000
0000
0000
0000
ENDCHAR
STARTCHAR C002
ENCODING 2
SWIDTH 666 0
DWIDTH 16 0
BBX 16 25 0 -5
BITMAP
0000
0000
0000
0000
1f80
1f80
0600
0600
0600
0600
0600
0600
0600
0600
0600
0600
0600
0600
1f80
1f80
0000
0000
0000
0000
0000
ENDCHAR
STARTCHAR C003
ENCODING 3
SWIDTH 666 0
DWIDTH 16 0
BBX 16 25 0 -5
BITMAP
0000
0000
0000
0000
0000
0000
0000
07c0
1ff0
3c78
7038
7000
3800
1e00
3800
7000
7038
3c78
1ff0
07c0
0000
0000
0000
0000
0000
ENDCHAR
STARTCHAR C004
ENCODING 4
SWIDTH 666 0
DWIDTH 16 0
BBX 16 25 0 -5
BITMAP
0000
0000
0000
0000
0000
0000
0000
0300
0300
0780
0fc0
0cc0
1860
1860
3030
3030
6018
6018
c00c
c00c
0000
0000
0000
0000
0000
ENDCHAR
STARTCHAR C005
ENCODING 5
SWIDTH 666 0
DWIDTH 16 0
BBX 16 25 0 -5
BITMAP
0000
0000
0000
0000
0000
0000
3c00
7ef8
e7fc
c38c
0304
0704
1ffc
7bfc
6300
c300
c304
c78c
fffc
7cf8
0000
0000
0000
0000
0000
ENDCHAR
STARTCHAR C006
ENCODING 6
SWIDTH 666 0
DWIDTH 16 0
BBX 16 25 0 -5
BITMAP
0000
0000
0000
0000
0000
0000
0000
1fc0
3ff0
6030
6018
0018
0018
0018
0018
0018
6018
6030
3ff0
1fc0
0000
0000
0000
0000
0000
ENDCHAR
STARTCHAR C007
ENCODING 7
SWIDTH 666 0
DWIDTH 16 0
BBX 16 25 0 -5
BITMAP
0000
0000
0000
0000
0000
0000
6018
6018
6018
6018
6018
6018
6018
6018
6018
6018
6018
3030
3ff0
0fc0
0000
0000
0000
0000
0000
ENDCHAR
STARTCHAR C010
ENCODING 8
SWIDTH 666 0
DWIDTH 16 0
BBX 16 25 0 -5
BITMAP
0000
0000
f800
1c00
0600
0600
0300
0300
0180
0180
01c0
03c0
0660
0c60
1830
3030
6018
c018
800c
800c
0000
0000
0000
0000
0000
ENDCHAR
STARTCHAR C016
ENCODING 14
SWIDTH 666 0
DWIDTH 16 0
BBX 16 25 0 -5
BITMAP
0000
0000
0000
0000
0000
0000
1fc0
3ff0
6030
6030
0018
0018
0018
7ff8
7ff8
6018
6018
3030
3ff0
0fc0
0000
0000
0000
0000
0000
ENDCHAR
STARTCHAR C017
ENCODING 15
SWIDTH 666 0
DWIDTH 16 0
BBX 16 25 0 -5
BITMAP
0000
0000
0000
0010
0038
006c
0fc0
3fe0
78f0
6038
0038
0030
0060
01e0
0070
0038
6038
78f0
3fe0
0f80
0000
0000
0000
0000
0000
ENDCHAR
STARTCHAR C020
ENCODING 16
SWIDTH 666 0
DWIDTH 16 0
BBX 16 25 0 -5
BITMAP
0000
0000
0000
0000
0000
0000
0000
67e0
6ff0
7838
7018
6018
6018
6018
6018
6018
6018
6018
6018
6018
0018
0318
0338
01f0
00e0
ENDCHAR
STARTCHAR C021
ENCODING 17
SWIDTH 666 0
DWIDTH 16 0
BBX 16 25 0 -5
BITMAP
0000
0000
0fc0
1fe0
3870
3030
7038
6018
6018
6018
7ff8
7ff8
6018
6018
6018
7038
3030
3870
1fe0
0fc0
0000
0000
0000
0000
0000
ENDCHAR
STARTCHAR C022
ENCODING 18
SWIDTH 666 0
DWIDTH 16 0
BBX 16 25 0 -5
BITMAP
0000
3060
18c0
0d80
0700
0200
0000
1fc0
3fe0
6030
6030
6000
7fc0
3fe0
0030
0030
6030
6030
3fe0
1fc0
0000
0000
0000
0000
0000
ENDCHAR
STARTCHAR C023
ENCODING 19
SWIDTH 666 0
DWIDTH 16 0
BBX 16 25 0 -5
BITMAP
01c0
0360
0220
0620
0600
0600
0600
0600
0600
0600
0600
0600
0600
0600
0600
0600
0600
0600
0600
4600
4400
6c00
3800
0000
0000
ENDCHAR
STARTCHAR C024
ENCODING 20
SWIDTH 666 0
DWIDTH 16 0
BBX 16 25 0 -5
BITMAP
0000
0000
0300
7600
1c00
1e00
3700
6380
01c0
00c0
00e0
0060
1f60
31e0
60e0
4060
4060
60c0
3180
1f00
0000
0000
0000
0000
0000
ENDCHAR
STARTCHAR C025
ENCODING 21
SWIDTH 666 0
DWIDTH 16 0
BBX 16 25 0 -5
BITMAP
0000
3030
1860
0cc0
0780
0300
0000
7ff8
7ff8
0030
0060
00c0
0180
0300
0600
0c00
1800
3000
7ff8
7ff8
0000
0000
0000
0000
0000
ENDCHAR
STARTCHAR C026
ENCODING 22
SWIDTH 666 0
DWIDTH 16 0
BBX 16 25 0 -5
BITMAP
0000
0000
0000
0000
0000
0000
3ff8
3ff8
0038
0038
0070
00e0
01c0
0380
0f00
3fe0
3ff0
0078
0038
0018
3038
3878
1ff0
0fe0
0000
ENDCHAR
STARTCHAR C027
ENCODING 23
SWIDTH 666 0
DWIDTH 16 0
BBX 16 25 0 -5
BITMAP
0000
0000
0000
0000
0000
0fc0
1fe0
3870
7038
6018
0018
0018
0038
0070
00e0
01c0
0380
0300
0300
0300
0000
0000
0000
0000
0000
ENDCHAR
STARTCHAR C030
ENCODING 24
SWIDTH 666 0
DWIDTH 16 0
BBX 16 25 0 -5
BITMAP
0000
0000
0000
0000
0000
0000
0000
0000
0000
0000
0000
0000
0000
0000
0000
0000
0000
0000
0000
0000
0000
0000
ffff
ffff
0000
ENDCHAR
STARTCHAR C031
ENCODING 25
SWIDTH 666 0
DWIDTH 16 0
BBX 16 25 0 -5
BITMAP
0000
0000
0000
0000
0000
0000
0000
0000
00c0
0060
0030
0018
fffc
fffc
0018
0030
0060
00c0
0000
0000
0000
0000
0000
0000
0000
ENDCHAR
STARTCHAR C032
ENCODING 26
SWIDTH 666 0
DWIDTH 16 0
BBX 16 25 0 -5
BITMAP
0000
0000
0000
0000
1f80
1f80
0600
0600
0600
0600
0600
1f80
1f80
0600
0600
0600
0600
0600
1f80
1f80
0000
0000
0000
0000
0000
ENDCHAR
STARTCHAR C033
ENCODING 27
SWIDTH 666 0
DWIDTH 16 0
BBX 16 25 0 -5
BITMAP
0000
0000
0000
0000
0000
0000
0000
0018
0030
0060
7ff8
7ff8
0180
0300
7ff8
7ff8
1800
3000
6000
0000
0000
0000
0000
0000
0000
ENDCHAR
STARTCHAR C034
ENCODING 28
SWIDTH 666 0
DWIDTH 16 0
BBX 16 25 0 -5
BITMAP
0000
0000
0000
0000
0018
0078
01e0
0780
1e00
7800
7800
1e00
0780
01e0
0078
0018
0000
0000
7ff8
7ff8
0000
0000
0000
0000
0000
ENDCHAR
STARTCHAR C035
ENCODING 29
SWIDTH 666 0
DWIDTH 16 0
BBX 16 25 0 -5
BITMAP
0000
0000
0000
0000
6000
7800
1e00
0780
01e0
0078
0078
01e0
0780
1e00
7800
6000
0000
0000
7ff8
7ff8
0000
0000
0000
0000
0000
ENDCHAR
STARTCHAR C036
ENCODING 30
SWIDTH 666 0
DWIDTH 16 0
BBX 16 25 0 -5
BITMAP
0000
1830
0c60
06c0
0380
0100
0000
0fe0
3ff0
3018
6018
6000
6000
6000
6000
6000
6018
3018
3ff0
0fe0
0000
0000
0000
0000
0000
ENDCHAR
STARTCHAR C037
ENCODING 31
SWIDTH 666 0
DWIDTH 16 0
BBX 16 25 0 -5
BITMAP
0000
0000
60c0
3180
1b00
0e00
0400
0000
0600
0600
0600
0600
0600
0600
0600
0600
0600
0600
0600
0600
0600
0600
0600
7c00
7800
ENDCHAR
STARTCHAR C040
ENCODING 32
SWIDTH 666 0
DWIDTH 16 0
BBX 16 25 0 -5
BITMAP
0000
0000
0000
0000
0000
0000
0000
0000
0000
0000
0000
0000
0000
0000
0000
0000
0000
0000
0000
0000
0000
0000
0000
0000
0000
ENDCHAR
STARTCHAR !
ENCODING 33
SWIDTH 666 0
DWIDTH 16 0
BBX 16 25 0 -5
BITMAP
0380
0380
0380
0380
0380
0380
0380
0380
0380
0380
0380
0380
0380
0380
0000
0000
0000
0380
0380
0380
0000
0000
0000
0000
0000
ENDCHAR
STARTCHAR "
ENCODING 34
SWIDTH 666 0
DWIDTH 16 0
BBX 16 25 0 -5
BITMAP
18c0
18c0
18c0
18c0
18c0
18c0
18c0
18c0
0000
0000
0000
0000
0000
0000
0000
0000
0000
0000
0000
0000
0000
0000
0000
0000
0000
ENDCHAR
STARTCHAR #
ENCODING 35
SWIDTH 666 0
DWIDTH 16 0
BBX 16 25 0 -5
BITMAP
060c
060c
060c
0c18
0c18
7ffc
7ffc
1830
1830
1830
3060
3060
3060
fff8
fff8
60c0
60c0
c180
c180
c180
0000
0000
0000
0000
0000
ENDCHAR
STARTCHAR $
ENCODING 36
SWIDTH 666 0
DWIDTH 16 0
BBX 16 25 0 -5
BITMAP
0cc0
0cc0
1fe0
3ff0
7cf8
6cd8
6cc0
7cc0
3cc0
1fc0
0fe0
0cf0
0cf8
0cd8
6cd8
7cf8
3ff0
1fe0
0cc0
0cc0
0000
0000
0000
0000
0000
ENDCHAR
STARTCHAR %
ENCODING 37
SWIDTH 666 0
DWIDTH 16 0
BBX 16 25 0 -5
BITMAP
0018
3818
7c30
c630
c660
c660
7cc0
38c0
0180
0180
0300
0300
0600
0670
0cf8
0d8c
198c
198c
30f8
3070
0000
0000
0000
0000
0000
ENDCHAR
STARTCHAR &
ENCODING 38
SWIDTH 666 0
DWIDTH 16 0
BBX 16 25 0 -5
BITMAP
03c0
0ee0
0c70
1830
1830
1c60
0ee0
0780
1f00
3f00
7380
e1c0
e1cc
e0ec
e0ec
e078
7078
78fc
3fcc
0f80
0000
0000
0000
0000
0000
ENDCHAR
STARTCHAR '
ENCODING 39
SWIDTH 666 0
DWIDTH 16 0
BBX 16 25 0 -5
BITMAP
0e00
1f00
1f00
0f00
0700
0600
0c00
0800
0000
0000
0000
0000
0000
0000
0000
0000
0000
0000
0000
0000
0000
0000
0000
0000
0000
ENDCHAR
STARTCHAR (
ENCODING 40
SWIDTH 666 0
DWIDTH 16 0
BBX 16 25 0 -5
BITMAP
0070
00e0
00c0
0180
0180
0180
0180
0380
0380
0380
0380
0380
0380
0180
0180
0180
0180
00c0
00e0
0070
0000
0000
0000
0000
0000
ENDCHAR
STARTCHAR )
ENCODING 41
SWIDTH 666 0
DWIDTH 16 0
BBX 16 25 0 -5
BITMAP
3800
1c00
0c00
0600
0600
0600
0600
0700
0700
0700
0700
0700
0700
0600
0600
0600
0600
0c00
1c00
3800
0000
0000
0000
0000
0000
ENDCHAR
STARTCHAR *
ENCODING 42
SWIDTH 666 0
DWIDTH 16 0
BBX 16 25 0 -5
BITMAP
0000
0000
0000
0000
0000
0000
0780
0780
0780
0300
e31c
e01c
f87c
1860
0000
0cc0
1ce0
3870
3870
3870
0000
0000
0000
0000
0000
ENDCHAR
STARTCHAR +
ENCODING 43
SWIDTH 666 0
DWIDTH 16 0
BBX 16 25 0 -5
BITMAP
0000
0000
0000
0000
0000
0000
0300
0300
0300
0300
0300
0300
fffc
fffc
0300
0300
0300
0300
0300
0300
0000
0000
0000
0000
0000
ENDCHAR
STARTCHAR ,
ENCODING 44
SWIDTH 666 0
DWIDTH 16 0
BBX 16 25 0 -5
BITMAP
0000
0000
0000
0000
0000
0000
0000
0000
0000
0000
0000
0000
0000
0000
0000
0000
0e00
1f00
1f00
0f00
0700
0600
0c00
0800
0000
ENDCHAR
STARTCHAR -
ENCODING 45
SWIDTH 666 0
DWIDTH 16 0
BBX 16 25 0 -5
BITMAP
0000
0000
0000
0000
0000
0000
0000
0000
0000
0000
0000
0000
7ff8
7ff8
0000
0000
0000
0000
0000
0000
0000
0000
0000
0000
0000
ENDCHAR
STARTCHAR .
ENCODING 46
SWIDTH 666 0
DWIDTH 16 0
BBX 16 25 0 -5
BITMAP
0000
0000
0000
0000
0000
0000
0000
0000
0000
0000
0000
0000
0000
0000
0000
0e00
1f00
1f00
1f00
0e00
0000
0000
0000
0000
0000
ENDCHAR
STARTCHAR /
ENCODING 47
SWIDTH 666 0
DWIDTH 16 0
BBX 16 25 0 -5
BITMAP
0038
0030
0070
0060
00e0
00c0
01c0
0180
0380
0300
0700
0600
0e00
0c00
1c00
1800
3800
3000
7000
6000
0000
0000
0000
0000
0000
ENDCHAR
STARTCHAR 0
ENCODING 48
SWIDTH 666 0
DWIDTH 16 0
BBX 16 25 0 -5
BITMAP
1fe0
3ff0
7878
703c
603c
6038
6078
60f8
61d8
6398
6718
6e18
7c18
7818
7018
f018
f038
7878
3ff0
1fe0
0000
0000
0000
0000
0000
ENDCHAR
STARTCHAR 1
ENCODING 49
SWIDTH 666 0
DWIDTH 16 0
BBX 16 25 0 -5
BITMAP
0e00
1e00
3600
6600
0600
0600
0600
0600
0600
0600
0600
0600
0600
0600
0600
0600
0600
0600
7fe0
7fe0
0000
0000
0000
0000
0000
ENDCHAR
STARTCHAR 2
ENCODING 50
SWIDTH 666 0
DWIDTH 16 0
BBX 16 25 0 -5
BITMAP
1fc0
7ff0
6030
c018
c018
0018
0018
0030
0060
00c0
0180
0300
0600
0c00
1800
3000
6000
c000
fff8
fff8
0000
0000
0000
0000
0000
ENDCHAR
STARTCHAR 3
ENCODING 51
SWIDTH 666 0
DWIDTH 16 0
BBX 16 25 0 -5
BITMAP
1fc0
7ff0
6030
c018
c018
0018
0030
0030
0060
07c0
07c0
0060
0030
0030
0018
c018
c018
6030
7ff0
1fc0
0000
0000
0000
0000
0000
ENDCHAR
STARTCHAR 4
ENCODING 52
SWIDTH 666 0
DWIDTH 16 0
BBX 16 25 0 -5
BITMAP
0300
0700
0600
0c00
0c00
1800
1800
30c0
30c0
60c0
60c0
c0c0
c0c0
fff8
fff8
00c0
00c0
00c0
00c0
00c0
0000
0000
0000
0000
0000
ENDCHAR
STARTCHAR 5
ENCODING 53
SWIDTH 666 0
DWIDTH 16 0
BBX 16 25 0 -5
BITMAP
fff0
fff0
c000
c000
c000
c000
c000
c000
c000
ffc0
fff0
0030
0018
0018
0018
c018
c018
6030
7ff0
1fc0
0000
0000
0000
0000
0000
ENDCHAR
STARTCHAR 6
ENCODING 54
SWIDTH 666 0
DWIDTH 16 0
BBX 16 25 0 -5
BITMAP
1fc0
7ff0
6030
c018
c018
c000
c000
c000
c000
c700
dfc0
f8f0
e030
c018
c018
c018
c018
6030
7ff0
1fc0
0000
0000
0000
0000
0000
ENDCHAR
STARTCHAR 7
ENCODING 55
SWIDTH 666 0
DWIDTH 16 0
BBX 16 25 0 -5
BITMAP
fff8
fff8
0038
0030
0030
0060
0060
00c0
00c0
0180
0180
0300
0300
0600
0600
0c00
0c00
1800
1800
1800
0000
0000
0000
0000
0000
ENDCHAR
STARTCHAR 8
ENCODING 56
SWIDTH 666 0
DWIDTH 16 0
BBX 16 25 0 -5
BITMAP
0f80
3fe0
3060
6030
6030
6030
3060
3de0
0f80
0700
1fc0
78f0
6030
c018
c018
c018
c018
6030
7ff0
1fc0
0000
0000
0000
0000
0000
ENDCHAR
STARTCHAR 9
ENCODING 57
SWIDTH 666 0
DWIDTH 16 0
BBX 16 25 0 -5
BITMAP
1fc0
7ff0
6030
c018
c018
c018
c018
6038
78f8
1fd8
0718
0018
0018
0018
0018
c018
c018
6030
7ff0
1fc0
0000
0000
0000
0000
0000
ENDCHAR
STARTCHAR :
ENCODING 58
SWIDTH 666 0
DWIDTH 16 0
BBX 16 25 0 -5
BITMAP
0000
0000
0000
0000
0000
0000
0000
0e00
1f00
1f00
1f00
0e00
0000
0000
0000
0e00
1f00
1f00
1f00
0e00
0000
0000
0000
0000
0000
ENDCHAR
STARTCHAR ;
ENCODING 59
SWIDTH 666 0
DWIDTH 16 0
BBX 16 25 0 -5
BITMAP
0000
0000
0000
0000
0000
0000
0000
0000
0e00
1f00
1f00
1f00
0e00
0000
0000
0000
0e00
1f00
1f00
0f00
0700
0600
0c00
0800
0000
ENDCHAR
STARTCHAR <
ENCODING 60
SWIDTH 666 0
DWIDTH 16 0
BBX 16 25 0 -5
BITMAP
0000
0000
0000
0000
0000
0000
0000
0018
0078
01e0
0780
1e00
7800
7800
1e00
0780
01e0
0078
0018
0000
0000
0000
0000
0000
0000
ENDCHAR
STARTCHAR =
ENCODING 61
SWIDTH 666 0
DWIDTH 16 0
BBX 16 25 0 -5
BITMAP
0000
0000
0000
0000
0000
0000
0000
0000
0000
0000
7ff8
7ff8
0000
0000
7ff8
7ff8
0000
0000
0000
0000
0000
0000
0000
0000
0000
ENDCHAR
STARTCHAR >
ENCODING 62
SWIDTH 666 0
DWIDTH 16 0
BBX 16 25 0 -5
BITMAP
0000
0000
0000
0000
0000
0000
0000
6000
7800
1e00
0780
01e0
0078
0078
01e0
0780
1e00
7800
6000
0000
0000
0000
0000
0000
0000
ENDCHAR
STARTCHAR ?
ENCODING 63
SWIDTH 666 0
DWIDTH 16 0
BBX 16 25 0 -5
BITMAP
0fc0
1fe0
3870
7038
6018
0018
0018
0038
0070
00e0
01c0
0380
0700
0600
0600
0000
0000
0700
0700
0700
0000
0000
0000
0000
0000
ENDCHAR
STARTCHAR @
ENCODING 64
SWIDTH 666 0
DWIDTH 16 0
BBX 16 25 0 -5
BITMAP
0000
0000
0000
0000
0000
0000
0fc0
3ff0
6038
c01c
c78c
cfec
cc6c
cc6c
cff8
c7f0
e000
701c
3ff8
0fe0
0000
0000
0000
0000
0000
ENDCHAR
STARTCHAR A
ENCODING 65
SWIDTH 666 0
DWIDTH 16 0
BBX 16 25 0 -5
BITMAP
0200
0700
0700
0f80
0d80
0d80
18c0
18c0
18c0
3060
3060
3060
7ff0
7ff0
6030
6030
e038
c018
c018
c018
0000
0000
0000
0000
0000
ENDCHAR
STARTCHAR B
ENCODING 66
SWIDTH 666 0
DWIDTH 16 0
BBX 16 25 0 -5
BITMAP
ff80
ffe0
c060
c030
c030
c030
c030
c030
c060
ffe0
fff0
c030
c018
c018
c018
c018
c018
c030
fff0
ffc0
0000
0000
0000
0000
0000
ENDCHAR
STARTCHAR C
ENCODING 67
SWIDTH 666 0
DWIDTH 16 0
BBX 16 25 0 -5
BITMAP
1fc0
7ff0
6030
c018
c018
c000
c000
c000
c000
c000
c000
c000
c000
c000
c000
c018
c018
6030
7ff0
1fc0
0000
0000
0000
0000
0000
ENDCHAR
STARTCHAR D
ENCODING 68
SWIDTH 666 0
DWIDTH 16 0
BBX 16 25 0 -5
BITMAP
ffc0
fff0
c030
c018
c018
c018
c018
c018
c018
c018
c018
c018
c018
c018
c018
c018
c018
c030
fff0
ffc0
0000
0000
0000
0000
0000
ENDCHAR
STARTCHAR E
ENCODING 69
SWIDTH 666 0
DWIDTH 16 0
BBX 16 25 0 -5
BITMAP
fff8
fff8
c000
c000
c000
c000
c000
c000
c000
ffe0
ffe0
c000
c000
c000
c000
c000
c000
c000
fff8
fff8
0000
0000
0000
0000
0000
ENDCHAR
STARTCHAR F
ENCODING 70
SWIDTH 666 0
DWIDTH 16 0
BBX 16 25 0 -5
BITMAP
fff8
fff8
c000
c000
c000
c000
c000
c000
c000
ffe0
ffe0
c000
c000
c000
c000
c000
c000
c000
c000
c000
0000
0000
0000
0000
0000
ENDCHAR
STARTCHAR G
ENCODING 71
SWIDTH 666 0
DWIDTH 16 0
BBX 16 25 0 -5
BITMAP
1fc0
7ff0
6030
c018
c018
c000
c000
c000
c000
c000
c000
c0f8
c0f8
c018
c018
c018
c018
6030
7ff0
1fc0
0000
0000
0000
0000
0000
ENDCHAR
STARTCHAR H
ENCODING 72
SWIDTH 666 0
DWIDTH 16 0
BBX 16 25 0 -5
BITMAP
c018
c018
c018
c018
c018
c018
c018
c018
c018
fff8
fff8
c018
c018
c018
c018
c018
c018
c018
c018
c018
0000
0000
0000
0000
0000
ENDCHAR
STARTCHAR I
ENCODING 73
SWIDTH 666 0
DWIDTH 16 0
BBX 16 25 0 -5
BITMAP
1f80
1f80
0600
0600
0600
0600
0600
0600
0600
0600
0600
0600
0600
0600
0600
0600
0600
0600
1f80
1f80
0000
0000
0000
0000
0000
ENDCHAR
STARTCHAR J
ENCODING 74
SWIDTH 666 0
DWIDTH 16 0
BBX 16 25 0 -5
BITMAP
0018
0018
0018
0018
0018
0018
0018
0018
0018
0018
0018
0018
0018
0018
0018
c018
c018
6030
7ff0
1fc0
0000
0000
0000
0000
0000
ENDCHAR
STARTCHAR K
ENCODING 75
SWIDTH 666 0
DWIDTH 16 0
BBX 16 25 0 -5
BITMAP
c018
c038
c070
c0e0
c1c0
c380
c700
ce00
dc00
f800
f000
f800
dc00
ce00
c700
c380
c1c0
c0e0
c070
c030
0000
0000
0000
0000
0000
ENDCHAR
STARTCHAR L
ENCODING 76
SWIDTH 666 0
DWIDTH 16 0
BBX 16 25 0 -5
BITMAP
c000
c000
c000
c000
c000
c000
c000
c000
c000
c000
c000
c000
c000
c000
c000
c000
c000
c000
fff8
fff8
0000
0000
0000
0000
0000
ENDCHAR
STARTCHAR M
ENCODING 77
SWIDTH 666 0
DWIDTH 16 0
BBX 16 25 0 -5
BITMAP
c018
e038
f078
f8f8
ddd8
cd98
c718
c218
c218
c018
c018
c018
c018
c018
c018
c018
c018
c018
c018
c018
0000
0000
0000
0000
0000
ENDCHAR
STARTCHAR N
ENCODING 78
SWIDTH 666 0
DWIDTH 16 0
BBX 16 25 0 -5
BITMAP
e018
e018
f018
f018
d818
d818
cc18
cc18
c618
c618
c318
c318
c198
c198
c0d8
c0d8
c078
c078
c038
c038
0000
0000
0000
0000
0000
ENDCHAR
STARTCHAR O
ENCODING 79
SWIDTH 666 0
DWIDTH 16 0
BBX 16 25 0 -5
BITMAP
1fc0
7ff0
6030
c018
c018
c018
c018
c018
c018
c018
c018
c018
c018
c018
c018
c018
c018
6030
7ff0
1fc0
0000
0000
0000
0000
0000
ENDCHAR
STARTCHAR P
ENCODING 80
SWIDTH 666 0
DWIDTH 16 0
BBX 16 25 0 -5
BITMAP
ffc0
fff0
c030
c018
c018
c018
c018
c018
c030
fff0
ffc0
c000
c000
c000
c000
c000
c000
c000
c000
c000
0000
0000
0000
0000
0000
ENDCHAR
STARTCHAR Q
ENCODING 81
SWIDTH 666 0
DWIDTH 16 0
BBX 16 25 0 -5
BITMAP
1fc0
7ff0
6030
c018
c018
c018
c018
c018
c018
c018
c018
c018
c018
c018
c018
c0d8
c0f8
6070
7ff8
1fdc
000c
0000
0000
0000
0000
ENDCHAR
STARTCHAR R
ENCODING 82
SWIDTH 666 0
DWIDTH 16 0
BBX 16 25 0 -5
BITMAP
ffc0
fff0
c030
c018
c018
c018
c018
c018
c030
fff0
ffc0
c060
c060
c030
c030
c030
c030
c030
c018
c018
0000
0000
0000
0000
0000
ENDCHAR
STARTCHAR S
ENCODING 83
SWIDTH 666 0
DWIDTH 16 0
BBX 16 25 0 -5
BITMAP
1fc0
7ff0
6030
c018
c018
c000
c000
c000
6000
7fe0
1ff0
0030
0018
0018
0018
c018
c018
6030
7ff0
1fc0
0000
0000
0000
0000
0000
ENDCHAR
STARTCHAR T
ENCODING 84
SWIDTH 666 0
DWIDTH 16 0
BBX 16 25 0 -5
BITMAP
7ff8
7ff8
0300
0300
0300
0300
0300
0300
0300
0300
0300
0300
0300
0300
0300
0300
0300
0300
0300
0300
0000
0000
0000
0000
0000
ENDCHAR
STARTCHAR U
ENCODING 85
SWIDTH 666 0
DWIDTH 16 0
BBX 16 25 0 -5
BITMAP
c018
c018
c018
c018
c018
c018
c018
c018
c018
c018
c018
c018
c018
c018
c018
c018
c018
6030
7ff0
1fc0
0000
0000
0000
0000
0000
ENDCHAR
STARTCHAR V
ENCODING 86
SWIDTH 666 0
DWIDTH 16 0
BBX 16 25 0 -5
BITMAP
c018
c018
6030
6030
6030
3060
3060
3060
18c0
18c0
18c0
0d80
0d80
0d80
0700
0700
0700
0200
0200
0200
0000
0000
0000
0000
0000
ENDCHAR
STARTCHAR W
ENCODING 87
SWIDTH 666 0
DWIDTH 16 0
BBX 16 25 0 -5
BITMAP
c018
c018
c018
c018
c018
c018
c018
c018
c018
c018
c018
c218
c218
c718
cf98
ddd8
f8f8
f078
e038
c018
0000
0000
0000
0000
0000
ENDCHAR
STARTCHAR X
ENCODING 88
SWIDTH 666 0
DWIDTH 16 0
BBX 16 25 0 -5
BITMAP
c018
c018
6030
6030
3060
3060
18c0
18c0
0d80
0f80
0f80
0d80
18c0
18c0
3060
3060
6030
6030
c018
c018
0000
0000
0000
0000
0000
ENDCHAR
STARTCHAR Y
ENCODING 89
SWIDTH 666 0
DWIDTH 16 0
BBX 16 25 0 -5
BITMAP
4008
4008
6018
6018
3030
3030
1860
1860
0cc0
0fc0
0780
0300
0300
0300
0300
0300
0300
0300
0300
0300
0000
0000
0000
0000
0000
ENDCHAR
STARTCHAR Z
ENCODING 90
SWIDTH 666 0
DWIDTH 16 0
BBX 16 25 0 -5
BITMAP
fff8
fff8
0038
0030
0060
00e0
00c0
0180
0380
0300
0600
0e00
0c00
1800
3800
3000
6000
e000
fff8
fff8
0000
0000
0000
0000
0000
ENDCHAR
STARTCHAR [
ENCODING 91
SWIDTH 666 0
DWIDTH 16 0
BBX 16 25 0 -5
BITMAP
01f8
01f8
0180
0180
0180
0180
0180
0180
0180
0180
0180
0180
0180
0180
0180
0180
0180
0180
01f8
01f8
0000
0000
0000
0000
0000
ENDCHAR
STARTCHAR \
ENCODING 92
SWIDTH 666 0
DWIDTH 16 0
BBX 16 25 0 -5
BITMAP
7000
3000
3800
1800
1c00
0c00
0e00
0600
0700
0300
0380
0180
01c0
00c0
00e0
0060
0070
0030
0038
0018
0000
0000
0000
0000
0000
ENDCHAR
STARTCHAR ]
ENCODING 93
SWIDTH 666 0
DWIDTH 16 0
BBX 16 25 0 -5
BITMAP
7e00
7e00
0600
0600
0600
0600
0600
0600
0600
0600
0600
0600
0600
0600
0600
0600
0600
0600
7e00
7e00
0000
0000
0000
0000
0000
ENDCHAR
STARTCHAR ^
ENCODING 94
SWIDTH 666 0
DWIDTH 16 0
BBX 16 25 0 -5
BITMAP
0300
0780
0fc0
0fc0
1b60
3b70
3330
7338
6318
4308
0300
0300
0300
0300
0300
0300
0300
0300
0300
0300
0000
0000
0000
0000
0000
ENDCHAR
STARTCHAR _
ENCODING 95
SWIDTH 666 0
DWIDTH 16 0
BBX 16 25 0 -5
BITMAP
0000
0000
0000
0000
0000
0000
0000
0000
0c00
1800
3000
6000
fffc
fffc
6000
3000
1800
0c00
0000
0000
0000
0000
0000
0000
0000
ENDCHAR
STARTCHAR `
ENCODING 96
SWIDTH 666 0
DWIDTH 16 0
BBX 16 25 0 -5
BITMAP
0040
00c0
0180
0380
03c0
03e0
03e0
01c0
0000
0000
0000
0000
0000
0000
0000
0000
0000
0000
0000
0000
0000
0000
0000
0000
0000
ENDCHAR
STARTCHAR a
ENCODING 97
SWIDTH 666 0
DWIDTH 16 0
BBX 16 25 0 -5
BITMAP
0000
0000
0000
0000
0000
0000
0fe0
1ff0
3018
3018
0018
0078
07f8
3f98
7018
6018
6038
6078
3fd8
1f98
0000
0000
0000
0000
0000
ENDCHAR
STARTCHAR b
ENCODING 98
SWIDTH 666 0
DWIDTH 16 0
BBX 16 25 0 -5
BITMAP
0000
0000
6000
6000
6000
6000
6000
63c0
6ff0
7830
7018
6018
6018
6018
6018
6018
7018
7830
6ff0
63c0
0000
0000
0000
0000
0000
ENDCHAR
STARTCHAR c
ENCODING 99
SWIDTH 666 0
DWIDTH 16 0
BBX 16 25 0 -5
BITMAP
0000
0000
0000
0000
0000
0000
0000
0fe0
3ff0
3018
6018
6000
6000
6000
6000
6000
6018
3018
3ff0
0fe0
0000
0000
0000
0000
0000
ENDCHAR
STARTCHAR d
ENCODING 100
SWIDTH 666 0
DWIDTH 16 0
BBX 16 25 0 -5
BITMAP
0000
0000
0018
0018
0018
0018
0018
0f18
3fd8
3078
6038
6018
6018
6018
6018
6018
6038
3078
3fd8
0f18
0000
0000
0000
0000
0000
ENDCHAR
STARTCHAR e
ENCODING 101
SWIDTH 666 0
DWIDTH 16 0
BBX 16 25 0 -5
BITMAP
0000
0000
0000
0000
0000
0000
0000
0fc0
3ff0
3030
6018
6018
7ff8
7ff8
6000
6000
6018
3018
3ff0
0fe0
0000
0000
0000
0000
0000
ENDCHAR
STARTCHAR f
ENCODING 102
SWIDTH 666 0
DWIDTH 16 0
BBX 16 25 0 -5
BITMAP
0000
0000
00f0
01f0
0300
0300
0300
0300
1ff0
1ff0
0300
0300
0300
0300
0300
0300
0300
0300
0300
0300
0000
0000
0000
0000
0000
ENDCHAR
STARTCHAR g
ENCODING 103
SWIDTH 666 0
DWIDTH 16 0
BBX 16 25 0 -5
BITMAP
0000
0000
0000
0000
0000
0000
0000
0f18
3fd8
3078
6038
6018
6018
6018
6018
6018
6038
3078
3fd8
0f18
0018
0018
3030
3ff0
1fc0
ENDCHAR
STARTCHAR h
ENCODING 104
SWIDTH 666 0
DWIDTH 16 0
BBX 16 25 0 -5
BITMAP
0000
0000
6000
6000
6000
6000
6000
63c0
6ff0
7c30
7018
6018
6018
6018
6018
6018
6018
6018
6018
6018
0000
0000
0000
0000
0000
ENDCHAR
STARTCHAR i
ENCODING 105
SWIDTH 666 0
DWIDTH 16 0
BBX 16 25 0 -5
BITMAP
0000
0700
0700
0700
0000
0000
0000
0300
0300
0300
0300
0300
0300
0300
0300
0300
0300
0300
0300
0300
0000
0000
0000
0000
0000
ENDCHAR
STARTCHAR j
ENCODING 106
SWIDTH 666 0
DWIDTH 16 0
BBX 16 25 0 -5
BITMAP
0000
0000
01c0
01c0
01c0
0000
0000
0000
00c0
00c0
00c0
00c0
00c0
00c0
00c0
00c0
00c0
00c0
00c0
00c0
00c0
00c0
00c0
0f80
0f00
ENDCHAR
STARTCHAR k
ENCODING 107
SWIDTH 666 0
DWIDTH 16 0
BBX 16 25 0 -5
BITMAP
0000
0000
6000
6000
6000
6000
6000
60e0
61c0
6380
6700
6e00
7e00
7f00
7380
61c0
60e0
6070
6038
6018
0000
0000
0000
0000
0000
ENDCHAR
STARTCHAR l
ENCODING 108
SWIDTH 666 0
DWIDTH 16 0
BBX 16 25 0 -5
BITMAP
0000
0300
0300
0300
0300
0300
0300
0300
0300
0300
0300
0300
0300
0300
0300
0300
0300
0300
0300
0300
0000
0000
0000
0000
0000
ENDCHAR
STARTCHAR m
ENCODING 109
SWIDTH 666 0
DWIDTH 16 0
BBX 16 25 0 -5
BITMAP
0000
0000
0000
0000
0000
0000
6000
6e70
7ef8
6318
6318
6318
6318
6318
6318
6318
6318
6318
6318
6318
0000
0000
0000
0000
0000
ENDCHAR
STARTCHAR n
ENCODING 110
SWIDTH 666 0
DWIDTH 16 0
BBX 16 25 0 -5
BITMAP
0000
0000
0000
0000
0000
0000
0000
67e0
6ff0
7838
7018
6018
6018
6018
6018
6018
6018
6018
6018
6018
0000
0000
0000
0000
0000
ENDCHAR
STARTCHAR o
ENCODING 111
SWIDTH 666 0
DWIDTH 16 0
BBX 16 25 0 -5
BITMAP
0000
0000
0000
0000
0000
0000
0000
0fc0
3ff0
3030
6018
6018
6018
6018
6018
6018
6018
3030
3ff0
0fc0
0000
0000
0000
0000
0000
ENDCHAR
STARTCHAR p
ENCODING 112
SWIDTH 666 0
DWIDTH 16 0
BBX 16 25 0 -5
BITMAP
0000
0000
0000
0000
0000
0000
6000
63c0
6ff0
7830
7018
6018
6018
6018
6018
6018
7018
7830
6ff0
63c0
6000
6000
6000
6000
6000
ENDCHAR
STARTCHAR q
ENCODING 113
SWIDTH 666 0
DWIDTH 16 0
BBX 16 25 0 -5
BITMAP
0000
0000
0000
0000
0000
0000
0000
0f18
3fd8
3078
6038
6018
6018
6018
6018
6018
6038
3078
3fd8
0f18
0018
0018
0018
0018
0018
ENDCHAR
STARTCHAR r
ENCODING 114
SWIDTH 666 0
DWIDTH 16 0
BBX 16 25 0 -5
BITMAP
0000
0000
0000
0000
0000
0000
0000
6380
6fe0
7c70
7030
6000
6000
6000
6000
6000
6000
6000
6000
6000
0000
0000
0000
0000
0000
ENDCHAR
STARTCHAR s
ENCODING 115
SWIDTH 666 0
DWIDTH 16 0
BBX 16 25 0 -5
BITMAP
0000
0000
0000
0000
0000
0000
0000
0fe0
1ff0
3018
3018
3000
3fe0
1ff0
0018
0018
3018
3018
1ff0
0fe0
0000
0000
0000
0000
0000
ENDCHAR
STARTCHAR t
ENCODING 116
SWIDTH 666 0
DWIDTH 16 0
BBX 16 25 0 -5
BITMAP
0000
0000
0300
0300
0300
0300
0300
1ff0
1ff0
0300
0300
0300
0300
0300
0300
0300
0300
0300
01f0
00f0
0000
0000
0000
0000
0000
ENDCHAR
STARTCHAR u
ENCODING 117
SWIDTH 666 0
DWIDTH 16 0
BBX 16 25 0 -5
BITMAP
0000
0000
0000
0000
0000
0000
0000
6018
6018
6018
6018
6018
6018
6018
6018
6018
6038
30f8
3fd8
0f18
0000
0000
0000
0000
0000
ENDCHAR
STARTCHAR v
ENCODING 118
SWIDTH 666 0
DWIDTH 16 0
BBX 16 25 0 -5
BITMAP
0000
0000
0000
0000
0000
0000
0000
6018
6018
7038
3030
3870
1860
1ce0
0cc0
0fc0
0780
0780
0300
0300
0000
0000
0000
0000
0000
ENDCHAR
STARTCHAR w
ENCODING 119
SWIDTH 666 0
DWIDTH 16 0
BBX 16 25 0 -5
BITMAP
0000
0000
0000
0000
0000
0000
0000
6018
6018
6018
6018
6018
6018
6018
6318
6798
6cd8
7878
7038
6018
0000
0000
0000
0000
0000
ENDCHAR
STARTCHAR x
ENCODING 120
SWIDTH 666 0
DWIDTH 16 0
BBX 16 25 0 -5
BITMAP
0000
0000
0000
0000
0000
0000
0000
4008
6018
7038
3870
1ce0
0fc0
0780
0fc0
1ce0
3870
7038
6018
4008
0000
0000
0000
0000
0000
ENDCHAR
STARTCHAR y
ENCODING 121
SWIDTH 666 0
DWIDTH 16 0
BBX 16 25 0 -5
BITMAP
0000
0000
0000
0000
0000
0000
0000
6018
6018
6018
6018
6018
6018
6018
6018
6018
6038
30f8
3fd8
0f18
0018
0018
3030
3ff0
1fc0
ENDCHAR
STARTCHAR z
ENCODING 122
SWIDTH 666 0
DWIDTH 16 0
BBX 16 25 0 -5
BITMAP
0000
0000
0000
0000
0000
0000
0000
7ff8
7ff8
0030
0060
00c0
0180
0300
0600
0c00
1800
3000
7ff8
7ff8
0000
0000
0000
0000
0000
ENDCHAR
STARTCHAR {
ENCODING 123
SWIDTH 666 0
DWIDTH 16 0
BBX 16 25 0 -5
BITMAP
0038
0060
00c0
00c0
0060
0060
0060
0060
00c0
01c0
01c0
00c0
0060
0060
0060
0060
00c0
00c0
0060
0038
0000
0000
0000
0000
0000
ENDCHAR
STARTCHAR |
ENCODING 124
SWIDTH 666 0
DWIDTH 16 0
BBX 16 25 0 -5
BITMAP
0300
0300
0300
0300
0300
0300
0300
0300
0300
0300
0300
0300
0300
0300
0300
0300
0300
0300
0300
0300
0000
0000
0000
0000
0000
ENDCHAR
STARTCHAR }
ENCODING 125
SWIDTH 666 0
DWIDTH 16 0
BBX 16 25 0 -5
BITMAP
7000
1800
0c00
0c00
1800
1800
1800
1800
0c00
0e00
0e00
0c00
1800
1800
1800
1800
0c00
0c00
1800
7000
0000
0000
0000
0000
0000
ENDCHAR
STARTCHAR ~
ENCODING 126
SWIDTH 666 0
DWIDTH 16 0
BBX 16 25 0 -5
BITMAP
0000
0000
0000
0000
0000
0000
0000
0000
0000
0000
1c04
3e04
7f0c
e71c
c3f8
81f0
80e0
0000
0000
0000
0000
0000
0000
0000
0000
ENDCHAR
STARTCHAR C177
ENCODING 127
SWIDTH 666 0
DWIDTH 16 0
BBX 16 25 0 -5
BITMAP
0000
0000
0000
0000
0000
0000
0000
0000
0000
0000
0000
0000
0000
0000
0000
0000
0000
0000
0000
0000
0000
0000
0000
0000
0000
ENDCHAR
ENDFONT
